<svg xmlns="http://www.w3.org/2000/svg" width="64.33" height="29.33" viewBox="0 0 64.33 29.33"><defs><style>.a{fill:#75d99c;}</style></defs><path class="a" d="M26.743,22.85a2.061,2.061,0,0,1,.7,1.47,2.148,2.148,0,0,1-.594,1.532,5.364,5.364,0,0,1-3.924,1.626c-3.174,0-6.77-2.376-9.615-5.206-4.127-4.143-7.239-9.865-3.58-13.539a1.986,1.986,0,0,1,1.517-.625,2.068,2.068,0,0,1,1.438.688l2.064,2.376a2.189,2.189,0,0,1-.109,2.924l-.829.829c.063.3.485,1.329,2.986,3.846,2.533,2.533,3.565,2.924,3.862,3l.813-.829a2.148,2.148,0,0,1,2.924-.109ZM67.45,6.841V28.729a3.73,3.73,0,0,1-3.721,3.721H6.841A3.73,3.73,0,0,1,3.12,28.729V6.841A3.73,3.73,0,0,1,6.841,3.12H63.729A3.73,3.73,0,0,1,67.45,6.841Zm-1.188,0a2.522,2.522,0,0,0-2.533-2.533H6.841A2.522,2.522,0,0,0,4.308,6.841V28.729a2.522,2.522,0,0,0,2.533,2.533H63.729a2.522,2.522,0,0,0,2.533-2.533Z" transform="translate(-3.12 -3.12)"/></svg>