<svg xmlns="http://www.w3.org/2000/svg" width="17.691" height="20.11" viewBox="0 0 17.691 20.11"><defs><style>.a{fill:#035222;}</style></defs><path class="a" d="M18.224,12.485l-6.25,6.25a4.2,4.2,0,0,1-6.048,0,4.2,4.2,0,0,1,0-6.048l8.064-8.064a2.627,2.627,0,0,1,3.528,0,2.435,2.435,0,0,1,0,3.528l-6.955,6.955a.791.791,0,0,1-1.109,0h0a.791.791,0,0,1,0-1.109L14.6,8.856a1,1,0,1,0-1.411-1.411L8.043,12.686a2.739,2.739,0,0,0,0,3.931,2.933,2.933,0,0,0,3.931,0L18.93,9.662a4.5,4.5,0,0,0,0-6.451,4.5,4.5,0,0,0-6.451,0L4.414,11.275A6.273,6.273,0,0,0,8.951,21.96a6.517,6.517,0,0,0,4.435-1.814l6.25-6.25a1,1,0,0,0-1.411-1.411Z" transform="translate(-2.6 -1.85)"/></svg>