<svg xmlns="http://www.w3.org/2000/svg" width="14.74" height="18.951" viewBox="0 0 14.74 18.951"><defs><style>.a,.b{fill:#fff;}.b{fill-rule:evenodd;}</style></defs><path class="a" d="M15.529,3a.989.989,0,0,1,1.053.91h2.106a.989.989,0,0,1,1.053.91.989.989,0,0,1-1.053.91H6.053A.989.989,0,0,1,5,4.819a.989.989,0,0,1,1.053-.91H8.159A.989.989,0,0,1,9.211,3Z" transform="translate(-5 -3)"/><path class="b" d="M6,7H18.921V17.916a2.008,2.008,0,0,1-2.153,1.819H8.153A2.008,2.008,0,0,1,6,17.916ZM9.769,8.819a.5.5,0,0,0-.538.455v8.187a.546.546,0,0,0,1.077,0V9.274A.5.5,0,0,0,9.769,8.819Zm5.384,0a.5.5,0,0,0-.538.455v8.187a.546.546,0,0,0,1.077,0V9.274A.5.5,0,0,0,15.152,8.819Z" transform="translate(-5.09 -0.784)"/></svg>