<svg xmlns="http://www.w3.org/2000/svg" width="13.026" height="13.014" viewBox="0 0 13.026 13.014"><defs><style>.a{fill:#fff;}</style></defs><path class="a" d="M11.413,13.013H1.643a1.57,1.57,0,0,1-1.151-.477,1.566,1.566,0,0,1-.477-1.151V1.615A1.548,1.548,0,0,1,.492.47,1.579,1.579,0,0,1,1.643,0H8.971L7.342,1.614H2.457a.777.777,0,0,0-.579.242.792.792,0,0,0-.235.572V10.57a.777.777,0,0,0,.242.579.792.792,0,0,0,.572.235H10.6a.8.8,0,0,0,.814-.814V5.686l1.628-1.628v7.327a1.629,1.629,0,0,1-1.628,1.628ZM4.086,7.11,5.918,8.942l-2.646.814ZM6.732,8.332,4.7,6.309,10.789.2a.753.753,0,0,1,1.03,0l1.005,1.018a.706.706,0,0,1,.21.5.68.68,0,0,1-.21.515Z" transform="translate(-0.015 0.001)"/></svg>