<svg xmlns="http://www.w3.org/2000/svg" width="37.441" height="37.422" viewBox="0 0 37.441 37.422"><defs><style>.a{fill:#dbdbdb;}</style></defs><path class="a" d="M32.3,22.385a1.782,1.782,0,0,0-1.782,1.782v.677l-2.638-2.638a4.973,4.973,0,0,0-7,0l-1.248,1.248-4.42-4.42a5.08,5.08,0,0,0-7,0L5.565,21.672V11.691A1.782,1.782,0,0,1,7.347,9.908H19.824a1.782,1.782,0,1,0,0-3.565H7.347A5.347,5.347,0,0,0,2,11.691V33.08a5.347,5.347,0,0,0,5.347,5.347H28.736a5.347,5.347,0,0,0,5.347-5.347V24.168A1.782,1.782,0,0,0,32.3,22.385ZM7.347,34.862A1.782,1.782,0,0,1,5.565,33.08V26.717l5.169-5.169a1.408,1.408,0,0,1,1.943,0l5.65,5.65h0l7.664,7.664ZM30.519,33.08a1.586,1.586,0,0,1-.321.945L22.159,25.95,23.407,24.7a1.372,1.372,0,0,1,1.961,0l5.151,5.187Zm8.4-26.22L33.567,1.513a1.843,1.843,0,0,0-2.531,0L25.689,6.86A1.79,1.79,0,0,0,28.22,9.391l2.3-2.317v9.964a1.782,1.782,0,1,0,3.565,0V7.074l2.3,2.317A1.79,1.79,0,1,0,38.914,6.86Z" transform="translate(-2 -1.005)"/></svg>