<svg xmlns="http://www.w3.org/2000/svg" width="159.89" height="168.831" viewBox="0 0 159.89 168.831"><defs><style>.a{fill:#ffe236;}.b{fill:#e8e8e8;}.c{fill:#ffdf1f;}.d{fill:#dcdcdc;}.e{fill:#ffe966;}</style></defs><path class="a" d="M180.673,215.611l-80.55,54.519L22.06,215.849l5.792-3.669,16.513-10.463,113.419-.017,17.335,10.534Z" transform="translate(-21.588 -135.73)"/><path class="b" d="M89,135.278V17.691A10.191,10.191,0,0,1,99.191,7.5h93.078A10.191,10.191,0,0,1,202.46,17.691V135.278Z" transform="translate(-65.788 -7.5)"/><path class="c" d="M180.68,235.981,100.123,290.5,22.06,236.219l5.792-3.669,55.1,35.016,4.437,2.816,6.862,4.362a13.618,13.618,0,0,0,14.553,0l6.862-4.362,4.416-2.813L175.116,232.6Z" transform="translate(-21.588 -156.1)"/><path class="d" d="M89,272.973l45.8,31.844h19.3l48.363-32.723V264.26L164.3,288.508l-4.416,2.813-6.862,4.362a13.619,13.619,0,0,1-14.553,0l-6.862-4.362-4.436-2.816L89,264.263Z" transform="translate(-65.788 -177.038)"/><path class="e" d="M180.554,243.087V321.16a9.9,9.9,0,0,1-10.008,9.8H30.678a9.9,9.9,0,0,1-10.008-9.8V243.121a1.264,1.264,0,0,1,.808-1.09,3.186,3.186,0,0,1,3.176.19l57.382,36.467,4.436,2.816,6.862,4.362a13.619,13.619,0,0,0,14.553,0l6.862-4.362,4.416-2.813,57.447-36.5a3.162,3.162,0,0,1,3.142-.187,1.257,1.257,0,0,1,.8,1.08Z" transform="translate(-20.67 -162.126)"/><path class="a" d="M219.941,242.007a3.163,3.163,0,0,0-3.142.187l-6.251,3.974V321.16a9.9,9.9,0,0,1-10.008,9.8h10.191a9.9,9.9,0,0,0,10.008-9.8V243.087a1.257,1.257,0,0,0-.8-1.08Zm-93.289,39.5a2.59,2.59,0,0,1-.588.649l-40.438,31.31a2.548,2.548,0,1,1-3.119-4.029l39.708-30.756Zm72.173,31.511a2.544,2.544,0,0,1-2,.972,2.517,2.517,0,0,1-1.573-.547l-39.745-31.3a2.477,2.477,0,0,1-.574-.635l4.416-2.813,39.042,30.746A2.548,2.548,0,0,1,198.825,313.014Z" transform="translate(-60.849 -162.126)"/></svg>