<svg xmlns="http://www.w3.org/2000/svg" width="23.783" height="23.783" viewBox="0 0 23.783 23.783"><defs><style>.a{fill:#dbdbdb;}.b{fill:#fafafa;fill-rule:evenodd;}</style></defs><path class="a" d="M20.81,0H2.973A2.976,2.976,0,0,0,0,2.973V20.81a2.976,2.976,0,0,0,2.973,2.973H20.81a2.976,2.976,0,0,0,2.973-2.973V2.973A2.976,2.976,0,0,0,20.81,0Z"/><path class="b" d="M17.148,10.432H13.432V7.459c0-.82.666-.743,1.486-.743H16.4V3H13.432A4.459,4.459,0,0,0,8.973,7.459v2.973H6v3.716H8.973v8.175h4.459V14.148h2.23Z" transform="translate(2.918 1.459)"/></svg>