<svg xmlns="http://www.w3.org/2000/svg" width="278.658" height="185.187" viewBox="0 0 278.658 185.187"><defs><style>.a{fill:#f0f0f0;}.b{fill:#fff;}.c{fill:#035222;}.d{fill:#e5e5e5;}.e{fill:#eed4a2;}.f{fill:#2f2e41;}.g{opacity:0.2;}.h{fill:#ffe236;}</style></defs><path class="a" d="M438.239,428c9.55-16.8,27.766-29.7,47.049-28.455a89.031,89.031,0,0,0-23.415,56.463c-.317,8.1.174,17.138-5.2,23.2-3.346,3.773-8.459,5.6-13.487,5.984s-10.055-.525-15.016-1.43l-1.2.369C426.506,464.819,428.69,444.8,438.239,428Z" transform="translate(-338.285 -321.427)"/><path class="b" d="M485.3,399.08a76.1,76.1,0,0,0-33.883,32.311,32.771,32.771,0,0,0-3.587,9.621,18.8,18.8,0,0,0,.978,9.843c1.059,2.945,2.484,5.836,2.809,8.987a11.508,11.508,0,0,1-3.08,8.893c-2.692,3.016-6.307,4.885-9.906,6.59-4,1.893-8.177,3.8-11.007,7.329-.343.428-.987-.129-.645-.557,4.924-6.147,13.353-7.3,19.2-12.254,2.727-2.311,4.775-5.457,4.646-9.144-.113-3.224-1.579-6.206-2.678-9.179a20.054,20.054,0,0,1-1.315-9.589,30.293,30.293,0,0,1,3.2-9.723,73.83,73.83,0,0,1,13.576-18.658,77.449,77.449,0,0,1,21.414-15.279c.493-.237.765.57.276.806Z" transform="translate(-338.263 -320.554)"/><path class="b" d="M506.8,460.221a11.417,11.417,0,0,1-3.445-14.377c.249-.488,1.019-.123.77.365a10.572,10.572,0,0,0,3.232,13.367c.444.321-.115.964-.556.645Z" transform="translate(-391.468 -354.056)"/><path class="b" d="M498.313,553.478a22.005,22.005,0,0,0,13.933-7.942c.344-.427.989.13.645.557a22.89,22.89,0,0,1-14.515,8.234c-.544.078-.6-.772-.062-.849Z" transform="translate(-388.507 -424.599)"/><path class="b" d="M573.221,432.437A6.463,6.463,0,0,0,579,434.5c.542-.085.6.765.062.849a7.242,7.242,0,0,1-6.395-2.264.44.44,0,0,1-.044-.6A.428.428,0,0,1,573.221,432.437Z" transform="translate(-441.243 -344.667)"/><path class="a" d="M521.861,555.107c-.337.062-.674.125-1.014.194a85.11,85.11,0,0,0-13.307,3.678c-.337.117-.676.241-1.009.368a89.726,89.726,0,0,0-28.219,17.173,87.123,87.123,0,0,0-9.14,9.578c-3.866,4.723-7.681,10.152-12.733,13.231a14.969,14.969,0,0,1-1.626.882l-29.1-12.07c-.052-.061-.108-.115-.161-.176l-1.184-.429c.132-.186.273-.377.405-.563.076-.109.159-.214.235-.323.053-.071.106-.143.15-.21.017-.024.035-.048.05-.065.044-.068.091-.126.132-.186q1.177-1.6,2.382-3.191c0-.007,0-.007.012-.011a128.117,128.117,0,0,1,20.8-22.015c.235-.191.472-.388.72-.573a83.137,83.137,0,0,1,11.239-7.6,73.5,73.5,0,0,1,6.667-3.3,61.123,61.123,0,0,1,18.518-4.723c12.723-1.181,25.682,1.719,35.44,9.712C521.371,554.694,521.615,554.9,521.861,555.107Z" transform="translate(-336.49 -423.991)"/><path class="b" d="M522.62,576.25a76.1,76.1,0,0,0-46.507,5.4,32.773,32.773,0,0,0-8.656,5.522,18.8,18.8,0,0,0-5.146,8.448c-.928,2.989-1.53,6.155-3.169,8.867a11.508,11.508,0,0,1-7.814,5.246c-3.965.788-7.977.1-11.878-.7-4.33-.894-8.814-1.892-13.2-.775-.532.135-.71-.7-.18-.832,7.633-1.943,15.058,2.209,22.707,1.775,3.569-.2,7.1-1.482,9.215-4.5,1.851-2.642,2.475-5.906,3.388-8.941A20.056,20.056,0,0,1,466.1,587.3a30.3,30.3,0,0,1,8.412-5.834,73.829,73.829,0,0,1,22.073-6.723,77.447,77.447,0,0,1,26.3.693c.536.107.268.916-.265.81Z" transform="translate(-337.467 -444.792)"/><path class="b" d="M612.05,559.183a11.417,11.417,0,0,1,5.9-13.554c.493-.239.888.515.395.755A10.572,10.572,0,0,0,612.882,559C613.043,559.527,612.21,559.7,612.05,559.183Z" transform="translate(-468.846 -424.74)"/><path class="b" d="M549.875,642.415a22.005,22.005,0,0,0,15.906,2.048c.532-.133.711.7.18.832a22.889,22.889,0,0,1-16.547-2.164C548.932,642.866,549.4,642.152,549.875,642.415Z" transform="translate(-424.76 -493.165)"/><path class="b" d="M694.369,575.265a6.462,6.462,0,0,0,3.372,5.122c.484.259.019.973-.462.716a7.242,7.242,0,0,1-3.743-5.658.44.44,0,0,1,.326-.506.428.428,0,0,1,.506.326Z" transform="translate(-526.802 -445.49)"/><path class="c" d="M254.32,526.433c-4.075-19.705-9.17-26.275-9.17-26.275l-1.946-1.509-2.34-1.818.011-.234-.555-.189-.13-.1-.214-.164-.034.037-.073.075-10.591-3.6-13.436-4.564L209.621,480a10.761,10.761,0,0,0-8.609-4.2l-19.87.147a10.761,10.761,0,0,0-7.239,2.871l-13.06,12.114-20.35,9.719-.034-.034-.214.153-3.144,1.5.13.675-1.946,1.4s-5.094,6.113-9.17,24.449c-1.037,4.665-1.547,14.673-1.731,27.006a4.707,4.707,0,0,0,4.705,4.777H251.351a4.708,4.708,0,0,0,4.705-4.772C255.876,542.4,255.366,531.493,254.32,526.433Z" transform="translate(-124.383 -375.403)"/><path class="d" d="M577.062,191.732a15.945,15.945,0,0,0,0,31.89h118.83a15.945,15.945,0,1,0,0-31.89Z" transform="translate(-433.179 -174.547)"/><path class="b" d="M584.851,202.747a12.718,12.718,0,1,0,0,25.436h118.83a12.718,12.718,0,0,0,0-25.436Z" transform="translate(-440.968 -182.335)"/><circle class="e" cx="26.032" cy="26.032" r="26.032" transform="translate(43.783 40.874)"/><path class="f" d="M339.169,444.194q-.167-.367-.333-.737c.043,0,.085.007.127.009Z" transform="translate(-276.014 -352.531)"/><path d="M246.749,246.858a7.245,7.245,0,0,1,4.539-1.962c1.683.054,3.39,1.575,3.042,3.222a26.751,26.751,0,0,1,32.193-12.072c4.184,1.476,8.287,4.429,9.248,8.76a7.889,7.889,0,0,0,.994,3.234,3.692,3.692,0,0,0,3.929,1l.041-.012a1.23,1.23,0,0,1,1.486,1.736l-1.184,2.208a9.486,9.486,0,0,0,4.52-.1,1.229,1.229,0,0,1,1.3,1.912,21.42,21.42,0,0,1-17.08,8.779c-4.73-.029-9.508-1.659-14.112-.571a12.258,12.258,0,0,0-8.245,17.207c-1.414-1.547-4.148-1.181-5.594.336a7.673,7.673,0,0,0-1.675,5.871,27.24,27.24,0,0,0,2.8,9.143,27.334,27.334,0,0,1-16.2-48.691Z" transform="translate(-203.69 -204.8)"/><path class="g" d="M87.464,495.253l7.3,39.725,4.381.381Z" transform="translate(-61.842 -350.172)"/><path class="g" d="M333.81,485.026l-7.3,42.692-4.381.41Z" transform="translate(-227.763 -342.941)"/><path class="c" d="M257.212,161.757a2.6,2.6,0,0,1-3.473-1.523,2.636,2.636,0,0,1,1.381-3.6,2.768,2.768,0,0,1,2.092,5.119Zm-2.682-8.051-1.113.465a1.2,1.2,0,0,1-1.525-.559l-.055-.108c-1.2-2.16-1.335-4.785-.405-7.8.861-2.7,1.219-4.6.5-6.326-.831-1.991-2.607-2.615-4.871-1.711a4.138,4.138,0,0,0-1.849,1.046,1.587,1.587,0,0,1-1.149.467,1.534,1.534,0,0,1-1.1-.481,1.567,1.567,0,0,1-.011-2.138,12.167,12.167,0,0,1,4.115-2.825c4.865-2.031,7.314.968,8.434,3.651,1.1,2.625.48,5.061-.511,8.215-.83,2.621-.782,4.563.161,6.494a1.2,1.2,0,0,1-.623,1.608Z" transform="translate(-207.925 -133.069)"/><path class="h" d="M646.71,269.373H623.068a.569.569,0,0,1,0-1.139H646.71a.569.569,0,1,1,0,1.139Z" transform="translate(-476.579 -228.638)"/><path class="h" d="M749.091,270.021H725.448a.569.569,0,0,1,0-1.139h23.642a.569.569,0,0,1,0,1.139Z" transform="translate(-548.968 -229.097)"/><path class="h" d="M851.473,270.669H827.831a.569.569,0,0,1,0-1.139h23.642a.569.569,0,0,1,0,1.139Z" transform="translate(-621.358 -229.555)"/><path class="h" d="M953.851,271.317H930.208a.569.569,0,0,1,0-1.139h23.643a.569.569,0,0,1,0,1.139Z" transform="translate(-693.745 -230.013)"/><circle class="h" cx="4.394" cy="4.394" r="4.394" transform="translate(153.863 26.705)"/><circle class="h" cx="4.394" cy="4.394" r="4.394" transform="translate(184.037 26.705)"/><circle class="h" cx="4.394" cy="4.394" r="4.394" transform="translate(214.21 26.705)"/><circle class="h" cx="4.394" cy="4.394" r="4.394" transform="translate(244.383 26.705)"/></svg>