<svg xmlns="http://www.w3.org/2000/svg" width="92.114" height="90.093" viewBox="0 0 92.114 90.093"><defs><style>.a{fill:#75d99c;fill-rule:evenodd;}</style></defs><path class="a" d="M61.015,3.826a5.7,5.7,0,0,1,.589.937l.667,1.332a7.048,7.048,0,0,0,7.767,3.74l1.457-.309a5.707,5.707,0,0,1,6.891,5.5l.023,1.489a7.048,7.048,0,0,0,5.375,6.74l1.447.353a5.7,5.7,0,0,1,3.824,7.941L88.428,32.9a7.048,7.048,0,0,0,1.918,8.4l1.15.946a5.706,5.706,0,0,1,0,8.814l-1.15.946a7.048,7.048,0,0,0-1.918,8.4l.626,1.352a5.706,5.706,0,0,1-3.824,7.941l-1.447.354a7.048,7.048,0,0,0-5.375,6.74l-.023,1.489a5.705,5.705,0,0,1-6.891,5.5l-1.457-.309a7.048,7.048,0,0,0-7.767,3.74L61.6,88.547a5.7,5.7,0,0,1-8.593,1.961L51.832,89.6a7.047,7.047,0,0,0-8.621,0l-1.179.911a5.706,5.706,0,0,1-8.593-1.961l-.667-1.332a7.048,7.048,0,0,0-7.767-3.74l-1.457.309a5.706,5.706,0,0,1-6.891-5.5L16.636,76.8a7.047,7.047,0,0,0-5.375-6.74l-1.447-.354a5.707,5.707,0,0,1-3.824-7.941l.626-1.352a7.048,7.048,0,0,0-1.918-8.4l-1.15-.946a5.707,5.707,0,0,1,0-8.814L4.7,41.3a7.048,7.048,0,0,0,1.918-8.4l-.626-1.352A5.706,5.706,0,0,1,9.814,23.6l1.447-.353a7.048,7.048,0,0,0,5.375-6.74l.023-1.489a5.706,5.706,0,0,1,6.891-5.5l1.457.309a7.048,7.048,0,0,0,7.767-3.74l.667-1.332A5.706,5.706,0,0,1,42.033,2.8l1.179.911a7.048,7.048,0,0,0,8.621,0L53.011,2.8A5.706,5.706,0,0,1,61.015,3.826Zm5.162,30.958a3.62,3.62,0,0,0-4.907.073h0L46.453,48.928a4.229,4.229,0,0,1-5.783.038h0l-6.2-5.737a3.9,3.9,0,0,0-5.437.141q-.1.107-.2.223a3.483,3.483,0,0,0,.485,4.9h0l10.077,8.263a7.048,7.048,0,0,0,9.383-.4h0l17.5-17.023c.051-.05.1-.1.149-.156A3.113,3.113,0,0,0,66.178,34.784Z" transform="translate(-1.465 -1.608)"/></svg>