<svg xmlns="http://www.w3.org/2000/svg" width="22.004" height="19.803" viewBox="0 0 22.004 19.803"><defs><style>.a{fill:#dbdbdb;}</style></defs><path class="a" d="M11.8,18.8V17.7H4.111L4.1,22.1a2.193,2.193,0,0,0,2.2,2.2H21.7a2.193,2.193,0,0,0,2.2-2.2V17.7H16.2v1.1Zm11-9.9H18.392V6.7l-2.2-2.2h-4.4L9.59,6.7V8.9H5.2A2.207,2.207,0,0,0,3,11.1v3.3a2.193,2.193,0,0,0,2.2,2.2h6.6V14.4h4.4v2.2h6.6A2.207,2.207,0,0,0,25,14.4V11.1A2.207,2.207,0,0,0,22.8,8.9Zm-6.6,0H11.8V6.7h4.4Z" transform="translate(-3 -4.5)"/></svg>