<svg xmlns="http://www.w3.org/2000/svg" width="22.172" height="24.9" viewBox="0 0 22.172 24.9"><defs><style>.a{fill:#dbdbdb;}</style></defs><g transform="translate(-34.386 -26.314)"><path class="a" d="M54.9,101.1a1.593,1.593,0,0,0-.517-.846,1.893,1.893,0,0,0-.957-.432l-5.585-1.081,1.616,1.072-2.551,8-1.436-5.939-1.437,5.939-2.55-8L43.1,98.745l-5.585,1.081a1.894,1.894,0,0,0-.957.432,1.591,1.591,0,0,0-.517.846l-1.656,7.273,3.124,1.084c1.037,1.078,3.94,1.871,7.421,1.946h1.083c3.481-.075,6.384-.868,7.421-1.946l3.124-1.084Z" transform="translate(0 -60.193)"/><path class="a" d="M74.452,39.364l-1.287.461,1.287,1.856,1.288-1.856Zm4.78-7.162c0-3.3-1.358-5.888-4.78-5.888S69.673,28.9,69.673,32.2c-.358.187-.593.625-.241,1.564a2.581,2.581,0,0,0,.755,1.073c.975,2.428,2.893,4.3,4.266,4.3s3.291-1.874,4.266-4.3a2.584,2.584,0,0,0,.755-1.073C79.824,32.827,79.589,32.389,79.232,32.2Z" transform="translate(-28.98)"/></g></svg>