<svg xmlns="http://www.w3.org/2000/svg" width="23.371" height="20.45" viewBox="0 0 23.371 20.45"><defs><style>.a{fill:#fff;}</style></defs><path class="a" d="M23.371,7.362V20.509A2.192,2.192,0,0,1,21.18,22.7H2.191A2.192,2.192,0,0,1,0,20.509V7.362A2.192,2.192,0,0,1,2.191,5.171H6.208l.561-1.5a2.188,2.188,0,0,1,2.05-1.42h5.729A2.188,2.188,0,0,1,16.6,3.67l.566,1.5H21.18A2.192,2.192,0,0,1,23.371,7.362Zm-6.208,6.573a5.478,5.478,0,1,0-5.478,5.478A5.482,5.482,0,0,0,17.163,13.936Zm-1.461,0a4.017,4.017,0,1,1-4.017-4.017A4.023,4.023,0,0,1,15.7,13.936Z" transform="translate(0 -2.25)"/></svg>