<svg xmlns="http://www.w3.org/2000/svg" width="26.549" height="19.225" viewBox="0 0 26.549 19.225"><defs><style>.a{fill:#dbdbdb;}</style></defs><g transform="translate(-3 -11)"><path class="a" d="M29.091,27.855a.915.915,0,0,0-.915,0l-11.9,6.729-11.9-6.729a.915.915,0,0,0-1.373.8v7.9A2.746,2.746,0,0,0,5.746,39.3H26.8a2.746,2.746,0,0,0,2.746-2.746v-7.9A.915.915,0,0,0,29.091,27.855Z" transform="translate(0 -9.073)"/><path class="a" d="M26.8,11H5.746A2.746,2.746,0,0,0,3,13.746v1.717a.915.915,0,0,0,.458.8L15.817,23.24a.915.915,0,0,0,.915,0l12.359-6.981a.915.915,0,0,0,.458-.8V13.746A2.746,2.746,0,0,0,26.8,11Z" transform="translate(0)"/></g></svg>