<svg xmlns="http://www.w3.org/2000/svg" width="35.976" height="41.197" viewBox="0 0 35.976 41.197"><defs><style>.a,.b{fill:#eee;}.b,.d{fill-rule:evenodd;}.c,.d{fill:#035222;}.e{fill:#fff;}</style></defs><g transform="translate(-1.012 0.002)"><path class="a" d="M3.995,10.793a10.3,10.3,0,1,1,20.593,0" transform="translate(4.695 0.786)"/><path class="b" d="M4.01,4.5c0,7.712,6.693,13.738,10.039,20.593C17.57,18.239,24.6,12.216,24.6,4.5" transform="translate(4.719 7.093)"/><path class="c" d="M15.077,1036.36a11.6,11.6,0,0,0-11.583,11.583,1.287,1.287,0,1,0,2.574,0,9.009,9.009,0,0,1,18.019,0,1.287,1.287,0,1,0,2.574,0A11.6,11.6,0,0,0,15.077,1036.36Z" transform="translate(3.906 -1036.362)"/><path class="d" d="M4.782,1040.36a1.287,1.287,0,0,0-1.272,1.3c0,4.229,1.822,7.9,3.962,11.308s4.618,6.6,6.209,9.854a1.287,1.287,0,0,0,2.3.026c1.673-3.254,4.278-6.45,6.528-9.853s4.167-7.079,4.167-11.326a1.287,1.287,0,0,0-2.574,0c0,3.465-1.593,6.657-3.74,9.908-1.771,2.677-3.774,5.447-5.5,8.32-1.64-2.862-3.529-5.625-5.21-8.294-2.041-3.251-3.568-6.45-3.568-9.936a1.288,1.288,0,0,0-1.3-1.3Z" transform="translate(3.932 -1030.066)"/><path class="e" d="M12.143,6.074A2.574,2.574,0,1,1,9.569,3.5,2.574,2.574,0,0,1,12.143,6.074Z" transform="translate(9.417 5.513)"/><path class="c" d="M18.984,1039.36a3.861,3.861,0,1,0,3.861,3.861A3.883,3.883,0,0,0,18.984,1039.36Zm0,2.574a1.295,1.295,0,1,1-1.287,1.287A1.268,1.268,0,0,1,18.984,1041.934Zm10.528,13.455a1.287,1.287,0,0,0-.463,2.489,9.784,9.784,0,0,1,4.927,3.655,3.059,3.059,0,0,1-.234,3.668c-1.866,2.667-7.815,5.03-14.605,5.058s-12.824-2.273-14.8-4.948a3.088,3.088,0,0,1-.373-3.673,9.41,9.41,0,0,1,4.778-3.681,1.287,1.287,0,0,0-1-2.373c-2.883,1.21-4.986,2.837-6.054,4.847a5.951,5.951,0,0,0,.574,6.409c2.914,3.951,9.552,6.024,16.883,5.992s13.905-2.154,16.7-6.152a5.929,5.929,0,0,0,.36-6.42c-1.127-1.99-3.277-3.588-6.2-4.772a1.28,1.28,0,0,0-.5-.1Z" transform="translate(0 -1031.64)"/></g></svg>