<svg xmlns="http://www.w3.org/2000/svg" width="23.803" height="19.377" viewBox="0 0 23.803 19.377"><defs><style>.a{fill:#dbdbdb;}</style></defs><path class="a" d="M25.8,6.171a10.1,10.1,0,0,1-2.809.762,4.915,4.915,0,0,0,2.154-2.7,9.771,9.771,0,0,1-3.106,1.19,4.88,4.88,0,0,0-8.331,4.451A13.853,13.853,0,0,1,3.654,4.767,4.951,4.951,0,0,0,3,7.23a4.868,4.868,0,0,0,2.166,4.058,4.82,4.82,0,0,1-2.214-.607v.06A4.88,4.88,0,0,0,6.88,15.5a4.677,4.677,0,0,1-1.309.2,5.832,5.832,0,0,1-.916-.083A4.891,4.891,0,0,0,9.212,19,9.783,9.783,0,0,1,3.19,21.1,9.439,9.439,0,0,1,2,21.024a13.77,13.77,0,0,0,7.486,2.2,13.794,13.794,0,0,0,13.937-13.9V8.694A10.033,10.033,0,0,0,25.8,6.171Z" transform="translate(-2 -3.849)"/></svg>