<svg xmlns="http://www.w3.org/2000/svg" width="31.124" height="20.749" viewBox="0 0 31.124 20.749"><defs><style>.a{fill:#f0f0f0;}.b{fill:#d80027;}.c{fill:#0052b4;}</style></defs><g transform="translate(0 -85.33)"><path class="a" d="M0,85.333H31.124v20.749H0Z" transform="translate(0 -0.003)"/><path class="b" d="M17.507,85.33h-3.89v8.429H0v3.89H13.617v8.429h3.89V97.65H31.124v-3.89H17.507Z" transform="translate(0 0)"/><path class="c" d="M316.646,315.358l7.187,3.993v-3.993Zm-4.994,0,12.181,6.767v-1.914l-8.736-4.854Zm8.936,6.767-8.936-4.965v4.965Z" transform="translate(-292.709 -216.046)"/><path class="a" d="M311.652,315.358l12.181,6.767v-1.914l-8.736-4.854Z" transform="translate(-292.709 -216.046)"/><path class="b" d="M311.652,315.358l12.181,6.767v-1.914l-8.736-4.854Z" transform="translate(-292.709 -216.046)"/><path class="c" d="M5.493,315.356,0,318.408v-3.051Zm6.688.861v5.907H1.55Z" transform="translate(0 -216.044)"/><path class="b" d="M8.736,315.358,0,320.212v1.914l12.181-6.767Z" transform="translate(0 -216.046)"/><path class="c" d="M7.187,92.1,0,88.1V92.1Zm4.994,0L0,85.33v1.914L8.736,92.1ZM3.245,85.33,12.181,90.3V85.33Z"/><path class="a" d="M12.181,92.1,0,85.33v1.914L8.736,92.1Z"/><path class="b" d="M12.181,92.1,0,85.33v1.914L8.736,92.1Z"/><path class="c" d="M318.34,92.1l5.493-3.051V92.1Zm-6.688-.861V85.331h10.631Z" transform="translate(-292.709 -0.001)"/><path class="b" d="M315.1,92.1l8.736-4.854V85.33L311.652,92.1Z" transform="translate(-292.709)"/></g></svg>