<svg xmlns="http://www.w3.org/2000/svg" width="23.803" height="16.726" viewBox="0 0 23.803 16.726"><defs><style>.a{fill:#dbdbdb;}</style></defs><path class="a" d="M24.789,10.153A9.191,9.191,0,0,0,23.8,5.687a3.157,3.157,0,0,0-1.86-1.081,84.731,84.731,0,0,0-9.05-.335A84.821,84.821,0,0,0,3.877,4.6,3.1,3.1,0,0,0,2.3,5.4c-.973.9-1.081,2.433-1.189,3.73a52.213,52.213,0,0,0,0,7.007A10.326,10.326,0,0,0,1.433,18.3,3.4,3.4,0,0,0,2.2,19.766a3.092,3.092,0,0,0,1.611.843,48.852,48.852,0,0,0,7.028.357c3.784.054,7.1,0,11.029-.3a3.114,3.114,0,0,0,1.654-.843,2.692,2.692,0,0,0,.66-1.081,11.44,11.44,0,0,0,.562-3.676C24.789,14.457,24.789,10.8,24.789,10.153ZM10.451,15.711V9.018l6.4,3.363C15.057,13.375,12.689,14.5,10.451,15.711Z" transform="translate(-0.991 -4.258)"/></svg>