<svg xmlns="http://www.w3.org/2000/svg" width="129.755" height="65.841" viewBox="0 0 129.755 65.841"><defs><style>.a{fill:#035222;}</style></defs><g transform="translate(-1730 -91.133)"><g transform="translate(1730 91.133)"><g transform="translate(0 12.411)"><path class="a" d="M150.371,136.881l-10.215,7.461-10.239-7.485-5.767,4.237V136.74h-8.12v45.921h53.123V150.58Zm10.686,37.683H124.15V151.145l5.767-4.237,6.284,4.613v14.9h18.524V158.3H144.3v-7.038l.659-.471,5.414-3.884,10.686,7.791Z" transform="translate(-116.03 -136.74)"/></g><g transform="translate(0.002)"><rect class="a" width="8.12" height="8.12"/></g><path class="a" d="M128.041,145.411l.659-.471,5.414-3.884" transform="translate(-99.771 -118.485)"/></g><g transform="translate(1791.404 103.667)"><g transform="translate(0.009)"><path d="M146.107,136.792v19.945h-3.985V136.792Z" transform="translate(-142.122 -136.792)"/><path d="M159,140.3a7.2,7.2,0,0,1,1.61,5v9.1h-3.954v-8.645a4.1,4.1,0,0,0-.96-2.9,3.42,3.42,0,0,0-2.629-1.031,3.519,3.519,0,0,0-2.712,1.1,4.509,4.509,0,0,0-1.017,3.166V154.4h-3.985V138.746h3.985v3.135a4.983,4.983,0,0,1,2.048-2.471,6.087,6.087,0,0,1,3.29-.89A5.542,5.542,0,0,1,159,140.3Z" transform="translate(-137.751 -134.453)"/><path d="M163.636,139.972a6.224,6.224,0,0,1,2.144,3.844h-3.728a3.109,3.109,0,0,0-1.014-1.808,3.069,3.069,0,0,0-2.064-.68,2.366,2.366,0,0,0-1.582.483,1.615,1.615,0,0,0-.567,1.3,1.315,1.315,0,0,0,.454,1.045,3.255,3.255,0,0,0,1.13.621q.678.226,1.949.537a19.957,19.957,0,0,1,2.9.833,4.814,4.814,0,0,1,1.923,1.384,3.818,3.818,0,0,1,.8,2.556,3.948,3.948,0,0,1-1.565,3.25,6.618,6.618,0,0,1-4.225,1.243,7.974,7.974,0,0,1-4.886-1.37,5.759,5.759,0,0,1-2.231-3.914h3.813a2.569,2.569,0,0,0,1.017,1.824,3.687,3.687,0,0,0,2.288.664,2.221,2.221,0,0,0,1.556-.494A1.678,1.678,0,0,0,162.28,150a1.419,1.419,0,0,0-.468-1.1,3.18,3.18,0,0,0-1.158-.65q-.692-.226-1.963-.537a21.909,21.909,0,0,1-2.839-.8,4.54,4.54,0,0,1-1.866-1.313,3.7,3.7,0,0,1-.777-2.486,4.076,4.076,0,0,1,1.556-3.307,6.593,6.593,0,0,1,4.293-1.271A6.908,6.908,0,0,1,163.636,139.972Z" transform="translate(-127.302 -134.437)"/><path d="M168.942,153.076v3.418H166.85a5.782,5.782,0,0,1-4.025-1.271q-1.4-1.271-1.4-4.239V144.2h-2.175v-3.361h2.175v-3.869h3.982v3.869h3.5V144.2h-3.5v6.84a2.209,2.209,0,0,0,.452,1.582,2.109,2.109,0,0,0,1.525.452Z" transform="translate(-118.933 -136.548)"/><path d="M174.556,139.464a5.059,5.059,0,0,1,2.005,2.516v-3.25h3.957v15.652h-3.957v-3.276a5.138,5.138,0,0,1-2.005,2.528,5.949,5.949,0,0,1-3.392.946,6.7,6.7,0,0,1-3.556-.96,6.473,6.473,0,0,1-2.471-2.782,10.715,10.715,0,0,1,0-8.56,6.479,6.479,0,0,1,2.471-2.784,6.741,6.741,0,0,1,3.556-.96A6.016,6.016,0,0,1,174.556,139.464Zm-5.141,3.759a5.455,5.455,0,0,0,0,6.654,4.289,4.289,0,0,0,5.976-.028,5.256,5.256,0,0,0,0-6.612,3.94,3.94,0,0,0-2.982-1.229A3.888,3.888,0,0,0,169.415,143.223Z" transform="translate(-112.175 -134.437)"/></g><g transform="translate(0 26.126)"><path d="M154.016,147.892h-4.533l-7.365,19.724h4.211l1.426-4.027h7.986l1.382,4.027h4.211Zm-5.225,12.682,2.947-8.424,2.923,8.424Z" transform="translate(-142.118 -147.892)"/><path d="M163.171,149.729v2.784a5.1,5.1,0,0,0-2-2.187,6.1,6.1,0,0,0-3.107-.781,6.793,6.793,0,0,0-3.634,1.012,7.231,7.231,0,0,0-2.6,2.853,9.5,9.5,0,0,0,0,8.356,7.055,7.055,0,0,0,2.6,2.784,6.8,6.8,0,0,0,3.634.989,5.48,5.48,0,0,0,3.062-.828,5.906,5.906,0,0,0,2.048-2.37v10.5h3.959V149.729Zm-.553,10.264a3.826,3.826,0,0,1-1.542,1.542,3.952,3.952,0,0,1-2.048.53,4.093,4.093,0,0,1-2.968-1.151,4.491,4.491,0,0,1-1.151-3.314,4.736,4.736,0,0,1,1.151-3.382,4.036,4.036,0,0,1,2.968-1.2,4.19,4.19,0,0,1,2.071.53,3.922,3.922,0,0,1,1.518,1.542,5.708,5.708,0,0,1,0,4.9Z" transform="translate(-130.285 -145.654)"/><path d="M171.287,149.742v3.246a5.015,5.015,0,0,0-2-2.509,5.836,5.836,0,0,0-3.382-.944,6.688,6.688,0,0,0-3.568.967,6.316,6.316,0,0,0-2.462,2.784,9.472,9.472,0,0,0-.9,4.279,9.616,9.616,0,0,0,.9,4.281,6.459,6.459,0,0,0,2.462,2.784,6.889,6.889,0,0,0,3.568.944,5.836,5.836,0,0,0,3.382-.944,5.076,5.076,0,0,0,2-2.53v3.291h3.957v-15.65Zm-1.174,11.117a3.973,3.973,0,0,1-2.968,1.219,3.859,3.859,0,0,1-2.992-1.2,5.377,5.377,0,0,1,0-6.649,3.875,3.875,0,0,1,2.992-1.222,3.966,3.966,0,0,1,2.968,1.222,5.263,5.263,0,0,1,0,6.628Z" transform="translate(-119.299 -145.668)"/><path d="M173.729,150.336a6.55,6.55,0,0,0-2.325,2.37v-2.992h-3.98v15.65h3.98v-7.548c0-2.716,1.473-4.074,4.4-4.074h.414v-4.187A5.228,5.228,0,0,0,173.729,150.336Z" transform="translate(-107.862 -145.641)"/></g></g></g></svg>