<svg xmlns="http://www.w3.org/2000/svg" width="18.413" height="22.667" viewBox="0 0 18.413 22.667"><defs><style>.a{fill:#fff;fill-rule:evenodd;}</style></defs><path class="a" d="M72.956,27.763c0,1.6-4.122,2.9-9.206,2.9s-9.206-1.3-9.206-2.9c0-1.26,2.544-2.332,6.1-2.734.426.573.842,1.115,1.229,1.61-1.353.192-2.28.586-2.28,1.04,0,.644,1.861,1.166,4.158,1.166s4.158-.522,4.158-1.166c0-.454-.926-.847-2.277-1.04.39-.5.807-1.038,1.235-1.61C70.416,25.433,72.956,26.5,72.956,27.763ZM63.749,8a7.283,7.283,0,0,0-7.283,7.283c0,3.342,4.855,9.515,7.1,12.323a.228.228,0,0,0,.356,0c2.157-2.687,7.1-8.889,7.1-12.324A7.282,7.282,0,0,0,63.749,8Zm0,3.458a3.816,3.816,0,1,1-3.816,3.816A3.816,3.816,0,0,1,63.749,11.458Z" transform="translate(-54.543 -8)"/></svg>