<svg xmlns="http://www.w3.org/2000/svg" width="22.15" height="22.156" viewBox="0 0 22.15 22.156"><defs><style>.a{fill:#dbdbdb;}</style></defs><path class="a" d="M24.821,15.575a2.85,2.85,0,0,1,1.829-2.659,11.3,11.3,0,0,0-1.367-3.294,2.888,2.888,0,0,1-1.159.248,2.844,2.844,0,0,1-2.6-4A11.264,11.264,0,0,0,18.234,4.5a2.848,2.848,0,0,1-5.318,0A11.3,11.3,0,0,0,9.622,5.867a2.844,2.844,0,0,1-2.6,4,2.794,2.794,0,0,1-1.159-.248,11.548,11.548,0,0,0-1.361,3.3,2.849,2.849,0,0,1,.006,5.318,11.3,11.3,0,0,0,1.367,3.294,2.845,2.845,0,0,1,3.755,3.755,11.364,11.364,0,0,0,3.294,1.367,2.843,2.843,0,0,1,5.307,0,11.3,11.3,0,0,0,3.294-1.367,2.848,2.848,0,0,1,3.755-3.755,11.364,11.364,0,0,0,1.367-3.294A2.864,2.864,0,0,1,24.821,15.575Zm-9.195,4.609a4.615,4.615,0,1,1,4.615-4.615A4.613,4.613,0,0,1,15.627,20.184Z" transform="translate(-4.5 -4.5)"/></svg>