<svg xmlns="http://www.w3.org/2000/svg" width="21.519" height="21.519" viewBox="0 0 21.519 21.519"><defs><style>.a{fill:#dbdbdb;}</style></defs><path class="a" d="M18.505,5.723h0A1.291,1.291,0,1,0,19.8,7.014,1.291,1.291,0,0,0,18.505,5.723Zm4.949,2.6a8.167,8.167,0,0,0-.495-2.615,5.315,5.315,0,0,0-1.248-1.9,5.057,5.057,0,0,0-1.9-1.237,7.855,7.855,0,0,0-2.615-.506C16.052,2,15.686,2,12.76,2s-3.292,0-4.433.065a7.855,7.855,0,0,0-2.615.506,5.143,5.143,0,0,0-1.9,1.237,5.057,5.057,0,0,0-1.237,1.9,7.854,7.854,0,0,0-.506,2.615C2,9.467,2,9.833,2,12.76s0,3.292.065,4.433a7.855,7.855,0,0,0,.506,2.615,5.057,5.057,0,0,0,1.237,1.9,5.143,5.143,0,0,0,1.9,1.237,7.855,7.855,0,0,0,2.615.506c1.141.065,1.506.065,4.433.065s3.292,0,4.433-.065a7.855,7.855,0,0,0,2.615-.506,5.057,5.057,0,0,0,1.9-1.237,5.218,5.218,0,0,0,1.248-1.9,8.166,8.166,0,0,0,.495-2.615c0-1.141.065-1.506.065-4.433S23.519,9.467,23.455,8.327Zm-1.937,8.737a6.036,6.036,0,0,1-.366,2,3.292,3.292,0,0,1-.807,1.237,3.432,3.432,0,0,1-1.237.807,6.036,6.036,0,0,1-2,.366c-1.076.054-1.474.065-4.3.065s-3.228,0-4.3-.065a6.165,6.165,0,0,1-2.087-.323,3.518,3.518,0,0,1-1.184-.807,3.228,3.228,0,0,1-.8-1.237A5.961,5.961,0,0,1,4,17.063c0-1.076-.065-1.474-.065-4.3s0-3.228.065-4.3a5.961,5.961,0,0,1,.377-2.044,3.228,3.228,0,0,1,.85-1.184,3.378,3.378,0,0,1,1.184-.861A6.165,6.165,0,0,1,8.456,4c1.076,0,1.474-.065,4.3-.065s3.228,0,4.3.065a6.036,6.036,0,0,1,2,.366,3.292,3.292,0,0,1,1.28.861,3.292,3.292,0,0,1,.807,1.184,6.036,6.036,0,0,1,.366,2.044c.054,1.076.065,1.474.065,4.3S21.572,15.987,21.518,17.063ZM12.76,7.24a5.509,5.509,0,1,0,3.913,1.61A5.52,5.52,0,0,0,12.76,7.24Zm0,9.1a3.583,3.583,0,1,1,3.583-3.583A3.583,3.583,0,0,1,12.76,16.343Z" transform="translate(-2 -2)"/></svg>