<svg xmlns="http://www.w3.org/2000/svg" width="58.399" height="73" viewBox="0 0 58.399 73"><defs><style>.a{fill:#dbdbdb;}</style></defs><g transform="translate(-4 -2)"><path class="a" d="M33.2,47.89a95.556,95.556,0,0,0,26.572-3.65l2.628-.766V20.26L49,12.23a26.645,26.645,0,0,1-4.854,5.621A16.279,16.279,0,0,1,33.2,22.34a16.388,16.388,0,0,1-10.95-4.453,27.813,27.813,0,0,1-4.818-5.657L4,20.26V43.328l2.628.766A95.556,95.556,0,0,0,33.2,47.89Z" transform="translate(0 27.109)"/><path class="a" d="M25.25,45.8c11.132,0,18.25-16.79,18.25-25.55a18.25,18.25,0,1,0-36.5,0C7,29.01,14.117,45.8,25.25,45.8Z" transform="translate(7.95 0)"/></g></svg>