<svg xmlns="http://www.w3.org/2000/svg" width="22.229" height="20.87" viewBox="0 0 22.229 20.87"><defs><style>.a{fill:#dbdbdb;}</style></defs><path class="a" d="M24,18.589c-3.186-.525-4.614-3.781-4.673-3.919l-.006-.013a1.19,1.19,0,0,1-.114-1c.214-.5.922-.729,1.391-.878.117-.037.228-.072.315-.107.848-.335,1.02-.682,1.016-.914a.736.736,0,0,0-.557-.6l-.006,0a1.052,1.052,0,0,0-.4-.076.839.839,0,0,0-.348.069,2.823,2.823,0,0,1-1.062.3.913.913,0,0,1-.589-.2c.01-.189.022-.384.035-.59l0-.073A11.228,11.228,0,0,0,18.748,6.1a5.833,5.833,0,0,0-5.416-3.489l-.447,0A5.824,5.824,0,0,0,7.478,6.1a11.214,11.214,0,0,0-.268,4.48q.022.332.04.664a.943.943,0,0,1-.649.2,2.727,2.727,0,0,1-1.127-.3.64.64,0,0,0-.273-.054.927.927,0,0,0-.9.592c-.091.479.592.825,1.008.989.088.035.2.07.315.107.469.149,1.177.374,1.391.878a1.191,1.191,0,0,1-.114,1l-.006.013a7.812,7.812,0,0,1-1.188,1.847A5.8,5.8,0,0,1,2.222,18.59.267.267,0,0,0,2,18.868a.423.423,0,0,0,.034.144c.2.457,1.176.834,2.836,1.09.155.024.221.277.312.692.036.166.074.338.126.516a.325.325,0,0,0,.355.254,2.762,2.762,0,0,0,.472-.068,6.146,6.146,0,0,1,1.245-.141,5.506,5.506,0,0,1,.9.076,4.309,4.309,0,0,1,1.706.872,4.938,4.938,0,0,0,2.989,1.178c.038,0,.075,0,.111,0s.106,0,.169,0A4.944,4.944,0,0,0,16.244,22.3a4.3,4.3,0,0,1,1.7-.871,5.527,5.527,0,0,1,.9-.076,6.215,6.215,0,0,1,1.245.132,2.658,2.658,0,0,0,.472.06h.026a.31.31,0,0,0,.328-.246c.052-.175.089-.342.127-.513.09-.412.155-.664.311-.688,1.661-.257,2.641-.633,2.835-1.088a.428.428,0,0,0,.035-.145A.267.267,0,0,0,24,18.589Z" transform="translate(-1.998 -2.611)"/></svg>