<svg xmlns="http://www.w3.org/2000/svg" width="202.825" height="170.783" viewBox="0 0 202.825 170.783"><defs><style>.a{fill:#ededed;}.b{fill:#dd584d;}.c{fill:#344d5b;}.d{fill:#d59247;}.e{fill:#cd5248;}.f{fill:#e7a14e;}.g{fill:#dbd8dd;}.h{fill:#75d99c;fill-rule:evenodd;}</style></defs><path class="a" d="M218.412,32.189H31.73a8.071,8.071,0,0,0-8.071,8.072V150.883a8.071,8.071,0,0,0,8.071,8.071H58.875v31.517l31.517-31.517h128.02a8.071,8.071,0,0,0,8.071-8.072V40.26a8.071,8.071,0,0,0-8.072-8.071Z" transform="translate(-23.659 -32.189)"/><path class="b" d="M79.735,93.669l.382-1.324-.04,1.324h43.344l-.04-1.324.383,1.324h13.384a174.607,174.607,0,0,0-3.505-20.856c-1.484-3.957-17.726-10.889-17.726-10.889l-3.537-5.059H110.4l-8.652.6-8.652-.6H91.12l-3.537,5.059S71.34,68.857,69.857,72.813a174.554,174.554,0,0,0-3.505,20.856Z" transform="translate(45.117 7.564)"/><path class="c" d="M99.69,56.754a.9.9,0,0,0-.742-.383h-20.6a.9.9,0,0,0-.742.383,27.242,27.242,0,0,0-3.126,5.966l1.511,7.708L80.3,65.667a39.2,39.2,0,0,1-2.154-7.406h21A39.2,39.2,0,0,1,97,65.667l4.308,4.761,1.511-7.708a27.245,27.245,0,0,0-3.126-5.966Z" transform="translate(58.216 6.768)"/><path class="d" d="M95.117,70.386l-9.256,13.7L76.695,70.012l.958-1.381-.6-1.642-.924-12.457H95.6l-.473,11.95-.775,2.149Z" transform="translate(60.866 3.805)"/><path class="e" d="M96.029,61.725l-1.622-1.793-5.8,7.709a12.727,12.727,0,0,0-2.546,7.308,12.727,12.727,0,0,0-2.546-7.308l-5.8-7.709L76.09,61.725l3.851,5.285C83.333,71.845,83.285,80.3,83,86.609h6.124c-.287-6.311-.335-14.765,3.057-19.6Z" transform="translate(60.806 12.504)"/><ellipse class="d" cx="5.138" cy="2.888" rx="5.138" ry="2.888" transform="translate(156.414 54.768) rotate(-79.235)"/><ellipse class="d" cx="2.888" cy="5.138" rx="2.888" ry="5.138" transform="translate(129.124 45.75) rotate(-10.765)"/><path class="f" d="M98.426,43.754H78.432l-4,5.6v7.705l1.333,9.456v4.9a10.5,10.5,0,0,0,5.332,7,10.991,10.991,0,0,0,14.662,0,10.5,10.5,0,0,0,5.332-7v-4.9l1.333-9.456V49.358Z" transform="translate(58.136 -13.558)"/><path class="c" d="M103.347,51.492c-.8-5.568-6.138-8.248-11.144-9.314a29.456,29.456,0,0,0-6.106-.094c-5.135,1-10.778,3.668-11.606,9.408A28.908,28.908,0,0,0,75,63.545h1.117a29.986,29.986,0,0,1,.1-7.2A25.015,25.015,0,0,1,79.078,50.4a22.31,22.31,0,0,0,7.567,1.535c.936.018,3.827.032,4.943-.012A22.463,22.463,0,0,0,98.76,50.4a25.014,25.014,0,0,1,2.867,5.943,29.987,29.987,0,0,1,.1,7.2h1.117A28.909,28.909,0,0,0,103.347,51.492Z" transform="translate(57.572 -16.434)"/><rect class="g" width="68.2" height="8.859" transform="translate(26.64 36.565)"/><rect class="g" width="68.2" height="8.859" transform="translate(26.64 58.953)"/><rect class="g" width="31.209" height="8.859" transform="translate(26.64 81.342)"/><path class="h" d="M60.656,3.812a5.666,5.666,0,0,1,.585.931L61.9,6.068a7.005,7.005,0,0,0,7.72,3.718l1.448-.308a5.673,5.673,0,0,1,6.85,5.462l.022,1.48a7.005,7.005,0,0,0,5.343,6.7l1.438.351a5.67,5.67,0,0,1,3.8,7.893L87.9,32.708a7.005,7.005,0,0,0,1.907,8.354L90.954,42a5.672,5.672,0,0,1,0,8.761L89.81,51.7A7.005,7.005,0,0,0,87.9,60.058l.622,1.343a5.671,5.671,0,0,1-3.8,7.893l-1.438.352a7.005,7.005,0,0,0-5.343,6.7l-.022,1.48a5.671,5.671,0,0,1-6.85,5.463l-1.448-.308A7.005,7.005,0,0,0,61.9,86.7l-.663,1.324a5.669,5.669,0,0,1-8.541,1.95l-1.171-.905a7,7,0,0,0-8.569,0l-1.171.905a5.672,5.672,0,0,1-8.541-1.95L32.584,86.7a7.005,7.005,0,0,0-7.72-3.718l-1.448.308a5.672,5.672,0,0,1-6.85-5.463l-.022-1.48a7,7,0,0,0-5.342-6.7l-1.438-.352a5.672,5.672,0,0,1-3.8-7.893l.622-1.343A7.005,7.005,0,0,0,4.677,51.7l-1.144-.941a5.672,5.672,0,0,1,0-8.761l1.144-.941a7.005,7.005,0,0,0,1.907-8.354l-.622-1.344a5.672,5.672,0,0,1,3.8-7.893L11.2,23.12a7.005,7.005,0,0,0,5.342-6.7l.022-1.48a5.672,5.672,0,0,1,6.85-5.462l1.448.308a7,7,0,0,0,7.72-3.718l.663-1.324a5.672,5.672,0,0,1,8.541-1.949L42.96,3.7a7.005,7.005,0,0,0,8.569,0L52.7,2.794A5.672,5.672,0,0,1,60.656,3.812Zm5.131,30.772a3.6,3.6,0,0,0-4.877.072h0L46.182,48.642a4.2,4.2,0,0,1-5.748.038h0l-6.167-5.7a3.874,3.874,0,0,0-5.4.14q-.1.107-.2.222a3.462,3.462,0,0,0,.482,4.872h0l10.016,8.213a7.005,7.005,0,0,0,9.326-.4h0l17.393-16.92c.051-.05.1-.1.149-.155A3.094,3.094,0,0,0,65.787,34.584Z" transform="translate(4.125 79.626)"/></svg>