<svg xmlns="http://www.w3.org/2000/svg" width="26.103" height="30.709" viewBox="0 0 26.103 30.709"><path d="M32.442,12.023,25.272,4.691A2.3,2.3,0,0,0,23.629,4H12.374a2.3,2.3,0,0,0-2.3,2.3v.768H9.3A2.3,2.3,0,0,0,7,9.374v3.839a.768.768,0,0,0,1.535,0V9.374A.768.768,0,0,1,9.3,8.606h.768V29.335a2.3,2.3,0,0,0,2.3,2.3H28.5v.768a.768.768,0,0,1-.768.768H9.3a.768.768,0,0,1-.768-.768V16.284a.768.768,0,0,0-1.535,0V32.406a2.3,2.3,0,0,0,2.3,2.3H27.728a2.3,2.3,0,0,0,2.3-2.3v-.768H30.8a2.3,2.3,0,0,0,2.3-2.3v-15.7A2.3,2.3,0,0,0,32.442,12.023ZM25.425,7.071l5.282,5.374H26.193a.768.768,0,0,1-.768-.768Zm6.142,22.264a.768.768,0,0,1-.768.768H12.374a.768.768,0,0,1-.768-.768V6.3a.768.768,0,0,1,.768-.768H23.629a.768.768,0,0,1,.261.054v6.088a2.3,2.3,0,0,0,2.3,2.3h5.374Zm-10.748-9.98h1.535v6.909H20.819Zm0-3.071h1.535v1.535H20.819Z" transform="translate(-7 -4)"/></svg>