<svg xmlns="http://www.w3.org/2000/svg" width="25.449" height="25.45" viewBox="0 0 25.449 25.45"><defs><style>.a{fill:#c8c8c8;}</style></defs><path class="a" d="M25.631,19.269V22a3.636,3.636,0,0,1-2.3,3.373l.383.765a.909.909,0,1,1-1.626.813l-.658-1.316H8.015l-.658,1.315a.909.909,0,0,1-1.626-.813l.383-.765A3.634,3.634,0,0,1,3.818,22V19.269Zm1.818-2.727a.909.909,0,0,1-.909.909H2.909a.909.909,0,0,1,0-1.818h.909V4.727A2.73,2.73,0,0,1,6.544,2,3.151,3.151,0,0,1,8.93,3.1,2.411,2.411,0,0,1,12,4.181L8.726,7.453A2.41,2.41,0,0,1,7.645,4.387a1.394,1.394,0,0,0-1.1-.569.911.911,0,0,0-.911.909V15.633h20.9A.909.909,0,0,1,27.449,16.542Z" transform="translate(-2 -2)"/></svg>