<svg xmlns="http://www.w3.org/2000/svg" width="21.207" height="25.455" viewBox="0 0 21.207 25.455"><defs><style>.a{fill:#c8c8c8;}</style></defs><path class="a" d="M12.751,2.027l10.6,2.121a1.06,1.06,0,0,1,.852,1.04v19.08a1.061,1.061,0,0,1-.852,1.04l-10.6,2.121a1.06,1.06,0,0,1-1.268-1.04V3.067a1.214,1.214,0,0,1,.388-.82A.888.888,0,0,1,12.751,2.027Zm-3.389,2.1v21.2H4.06a1.061,1.061,0,0,1-1.043-.87L3,24.268V5.188a1.061,1.061,0,0,1,.87-1.043l.191-.017Zm7.423,9.54a1.06,1.06,0,1,0,1.06,1.06A1.06,1.06,0,0,0,16.785,13.667Z" transform="translate(-3 -1.994)"/></svg>