<svg xmlns="http://www.w3.org/2000/svg" width="31.339" height="28.997" viewBox="0 0 31.339 28.997"><path d="M27.767,18.8V14.784A11.044,11.044,0,0,0,16.614,3.631,11.044,11.044,0,0,0,5.461,14.784V18.8a8.8,8.8,0,0,1-2.231,5.576L1.446,26.16A1.639,1.639,0,0,0,1,27.5a1.227,1.227,0,0,0,1.115.669h8.253a6.6,6.6,0,0,0,12.491,0h2.677a1.115,1.115,0,0,0,0-2.231H4.792a10.318,10.318,0,0,0,2.9-7.138V14.784a8.922,8.922,0,0,1,17.844,0V18.8a10.742,10.742,0,0,0,2.9,7.138l1.784,1.784c.223.223.446.223.892.223s.669,0,.892-.223a1.078,1.078,0,0,0,0-1.561S27.767,21.03,27.767,18.8ZM16.614,30.4a4.317,4.317,0,0,1-3.792-2.231h7.807A4.984,4.984,0,0,1,16.614,30.4Z" transform="translate(-1 -3.631)"/></svg>