<svg xmlns="http://www.w3.org/2000/svg" width="26" height="24.057" viewBox="0 0 26 24.057"><g transform="translate(1.632 2.849)"><path d="M23.206,16.215V12.884a9.163,9.163,0,0,0-9.253-9.253A9.163,9.163,0,0,0,4.7,12.884v3.331a7.3,7.3,0,0,1-1.851,4.626l-1.48,1.48A1.36,1.36,0,0,0,1,23.432a1.018,1.018,0,0,0,.925.555H8.772a5.478,5.478,0,0,0,10.363,0h2.221a.925.925,0,1,0,0-1.851H4.146a8.56,8.56,0,0,0,2.406-5.922V12.884a7.4,7.4,0,1,1,14.8,0v3.331a8.912,8.912,0,0,0,2.406,5.922l1.48,1.48c.185.185.37.185.74.185s.555,0,.74-.185a.894.894,0,0,0,0-1.3S23.206,18.066,23.206,16.215Zm-9.253,9.623a3.582,3.582,0,0,1-3.146-1.851h6.477A4.135,4.135,0,0,1,13.954,25.838Z" transform="translate(-2.632 -6.48)"/></g></svg>