<svg xmlns="http://www.w3.org/2000/svg" width="508.22" height="337.31" viewBox="0 0 508.22 337.31"><defs><style>.a{fill:#f2f2f2;}.b{fill:#fff;}.c{fill:#c8c8c8;}.d{fill:#8cebb1;}.e{fill:#e6e6e6;}.f{fill:#f8d2bd;}.g{fill:#b0afc5;}.h{fill:#6e6e6e;}</style></defs><path class="a" d="M658.3,453.173H208.8A11.586,11.586,0,0,1,197.228,441.6V164.427a8.489,8.489,0,0,1,8.479-8.479H661.252a8.636,8.636,0,0,1,8.625,8.626V441.6A11.587,11.587,0,0,1,658.3,453.173Z" transform="translate(-197.065 -148.368)"/><path class="b" d="M650.786,448.387H231.861c-6.141,0-11.137-4.679-11.137-10.429V196.592a8.015,8.015,0,0,1,8.253-7.734H653.534a8.148,8.148,0,0,1,8.39,7.862V437.958C661.923,443.708,656.927,448.387,650.786,448.387Z" transform="translate(-204.081 -158.194)"/><path class="c" d="M669.648,162.643H197v-5.892a11.626,11.626,0,0,1,11.616-11.608h449.42a11.626,11.626,0,0,1,11.616,11.608Z" transform="translate(-196.996 -145.142)"/><circle class="b" cx="3.005" cy="3.005" r="3.005" transform="translate(18.105 5.763)"/><circle class="b" cx="3.005" cy="3.005" r="3.005" transform="translate(29.51 5.763)"/><circle class="b" cx="3.005" cy="3.005" r="3.005" transform="translate(40.914 5.763)"/><path class="d" d="M353.053,242.908H279.017a11.22,11.22,0,0,0-11.223,11.223v50.384a11.22,11.22,0,0,0,11.223,11.223h74.036a11.224,11.224,0,0,0,11.223-11.221V254.131a11.224,11.224,0,0,0-11.221-11.223Z" transform="translate(-218.134 -174.332)"/><path class="d" d="M463.793,254.127v50.39a11.223,11.223,0,0,0,11.223,11.223H549.05a11.223,11.223,0,0,0,11.223-11.223v-50.39A11.223,11.223,0,0,0,549.05,242.9H475.016A11.223,11.223,0,0,0,463.793,254.127Z" transform="translate(-276.654 -174.331)"/><path class="e" d="M659.793,254.127v50.39a11.223,11.223,0,0,0,11.223,11.223H745.05a11.223,11.223,0,0,0,11.223-11.223v-50.39A11.223,11.223,0,0,0,745.05,242.9H671.016A11.223,11.223,0,0,0,659.793,254.127Z" transform="translate(-335.174 -174.331)"/><path class="e" d="M267.793,413.127v50.39a11.223,11.223,0,0,0,11.223,11.223H353.05a11.223,11.223,0,0,0,11.223-11.223v-50.39A11.223,11.223,0,0,0,353.05,401.9H279.016A11.223,11.223,0,0,0,267.793,413.127Z" transform="translate(-218.134 -221.804)"/><path class="e" d="M463.793,413.127v50.39a11.223,11.223,0,0,0,11.223,11.223H549.05a11.223,11.223,0,0,0,11.223-11.223v-50.39A11.223,11.223,0,0,0,549.05,401.9H475.016A11.223,11.223,0,0,0,463.793,413.127Z" transform="translate(-276.654 -221.804)"/><path class="d" d="M659.793,413.127v50.39a11.223,11.223,0,0,0,11.223,11.223H745.05a11.223,11.223,0,0,0,11.223-11.223v-50.39A11.223,11.223,0,0,0,745.05,401.9H671.016A11.223,11.223,0,0,0,659.793,413.127Z" transform="translate(-335.174 -221.804)"/><circle class="b" cx="15.431" cy="15.431" r="15.431" transform="translate(82.467 89.559)"/><path class="b" d="M350.108,343.4H302.944a23.417,23.417,0,0,1,4.215-5.766,23.072,23.072,0,0,1,16.365-6.776h6A23.139,23.139,0,0,1,350.108,343.4Z" transform="translate(-228.629 -200.591)"/><circle class="b" cx="15.431" cy="15.431" r="15.431" transform="translate(219.947 89.559)"/><path class="b" d="M546.108,343.4H498.944a23.413,23.413,0,0,1,4.215-5.766,23.072,23.072,0,0,1,16.365-6.776h6A23.138,23.138,0,0,1,546.108,343.4Z" transform="translate(-287.149 -200.591)"/><circle class="b" cx="15.431" cy="15.431" r="15.431" transform="translate(357.427 89.559)"/><path class="b" d="M742.108,343.4H694.944a23.4,23.4,0,0,1,4.216-5.766,23.071,23.071,0,0,1,16.364-6.776h6A23.138,23.138,0,0,1,742.108,343.4Z" transform="translate(-345.669 -200.591)"/><circle class="b" cx="15.431" cy="15.431" r="15.431" transform="translate(82.467 201.086)"/><path class="b" d="M350.108,502.4H302.944a23.417,23.417,0,0,1,4.215-5.766,23.069,23.069,0,0,1,16.365-6.776h6A23.139,23.139,0,0,1,350.108,502.4Z" transform="translate(-228.629 -248.064)"/><circle class="b" cx="15.431" cy="15.431" r="15.431" transform="translate(219.947 201.086)"/><path class="b" d="M546.108,502.4H498.944a23.411,23.411,0,0,1,4.215-5.766,23.069,23.069,0,0,1,16.365-6.776h6A23.139,23.139,0,0,1,546.108,502.4Z" transform="translate(-287.149 -248.064)"/><circle class="b" cx="15.431" cy="15.431" r="15.431" transform="translate(357.427 201.086)"/><path class="b" d="M742.108,502.4H694.944a23.387,23.387,0,0,1,4.216-5.766,23.069,23.069,0,0,1,16.364-6.776h6A23.139,23.139,0,0,1,742.108,502.4Z" transform="translate(-345.669 -248.064)"/><path class="f" d="M665.315,583.4h-8.6l-4.091-33.169h12.692Z" transform="translate(-204.831 -254.077)"/><path class="e" d="M645.255,594.018h16.584v10.443H634.813A10.443,10.443,0,0,1,645.255,594.018Z" transform="translate(-199.514 -267.15)"/><path class="f" d="M711.314,583.4h-8.6l-4.092-33.169h12.692Z" transform="translate(-218.566 -254.077)"/><path class="e" d="M691.255,594.018h16.584v10.443H680.813A10.443,10.443,0,0,1,691.255,594.018Z" transform="translate(-213.248 -267.15)"/><path class="f" d="M909.189,562.743a7.535,7.535,0,0,1-1.447-11.464l-5.662-80.354,16.31,1.582.448,78.691a7.576,7.576,0,0,1-9.649,11.545Z" transform="translate(-417.491 -332.205)"/><path class="g" d="M860.361,675.191l-9.466-.451a3.155,3.155,0,0,1-3.006-3.13c-2.5-38.522-5.952-79.828-.661-95.785a3.157,3.157,0,0,1,3.61-3.146l37.873,5.5a3.138,3.138,0,0,1,2.7,3.1c4.835,18.894,5.053,53.156,4.871,88.755a3.157,3.157,0,0,1-3.156,3.18H882.922a3.142,3.142,0,0,1-3.118-2.666l-6.3-40.029a2.455,2.455,0,0,0-4.863.09l-5,41.807a3.168,3.168,0,0,1-3.135,2.782C860.462,675.2,860.412,675.194,860.361,675.191Z" transform="translate(-400.285 -362.576)"/><path class="d" d="M867.764,543.505c-8.347-4.637-14.868-5.856-18.013-6.17a3.1,3.1,0,0,1-2.142-1.173,3.141,3.141,0,0,1-.653-2.386l9.075-67.373A23.3,23.3,0,0,1,869.614,448.2a22.66,22.66,0,0,1,22.022,1.726q.467.31.916.634a23.272,23.272,0,0,1,8.864,24.251c-5.564,22.765-7.476,60.086-7.8,67.337a3.133,3.133,0,0,1-2.047,2.809,31.623,31.623,0,0,1-10.68,1.9A26.74,26.74,0,0,1,867.764,543.505Z" transform="translate(-401.024 -324.801)"/><path class="d" d="M906.275,495.277a3.143,3.143,0,0,1-1.3-2.385l-1.2-21.657a8.7,8.7,0,0,1,17.077-2.755l5.25,19.363a3.16,3.16,0,0,1-2.22,3.872l-14.934,4.049a3.145,3.145,0,0,1-2.675-.487Z" transform="translate(-417.993 -329.558)"/><circle class="f" cx="17.228" cy="17.228" r="17.228" transform="translate(457.104 79.792)"/><path class="f" d="M792.267,457.312a7.319,7.319,0,0,1,.168,1.151l30.132,17.383,7.324-4.216,7.808,10.221-15.668,11.167L787.655,465.9a7.362,7.362,0,1,1,4.613-8.586Z" transform="translate(-380.366 -326.445)"/><path class="d" d="M843.176,475.34a3.142,3.142,0,0,1,.907-2.562l15.336-15.339a8.7,8.7,0,0,1,13.445,10.884l-10.921,16.829a3.16,3.16,0,0,1-4.366.929L844.6,477.657A3.144,3.144,0,0,1,843.176,475.34Z" transform="translate(-399.898 -327.418)"/><path class="h" d="M891.2,414.527c-3.215,3.424-9.183,1.586-9.6-3.091a5.621,5.621,0,0,1,.007-1.091c.216-2.072,1.413-3.953,1.126-6.14a3.223,3.223,0,0,0-.589-1.507c-2.561-3.429-8.573,1.534-10.99-1.571-1.483-1.9.26-4.9-.878-7.028-1.5-2.808-5.948-1.423-8.736-2.961-3.1-1.711-2.917-6.471-.875-9.366,2.49-3.531,6.857-5.415,11.169-5.686a29.958,29.958,0,0,1,12.62,2.463c4.574,1.783,9.11,4.246,11.925,8.268,3.423,4.891,3.752,11.467,2.041,17.186C897.379,407.481,893.825,411.732,891.2,414.527Z" transform="translate(-404.678 -303.877)"/></svg>