<svg xmlns="http://www.w3.org/2000/svg" width="26.103" height="24.878" viewBox="0 0 26.103 24.878"><path d="M29.413,31.97a6.985,6.985,0,1,0-6.966-7A6.967,6.967,0,0,0,29.413,31.97Zm0-12.133A5.129,5.129,0,1,1,24.284,25,5.129,5.129,0,0,1,29.413,19.837ZM17.319,42.878H41.584a.931.931,0,0,0,.919-.919,8.788,8.788,0,0,0-8.765-8.765H25.165A8.788,8.788,0,0,0,16.4,41.96.931.931,0,0,0,17.319,42.878Zm7.846-7.846h8.573a6.9,6.9,0,0,1,6.851,6.009H18.314A6.9,6.9,0,0,1,25.165,35.032Z" transform="translate(-16.4 -18)"/></svg>