<svg xmlns="http://www.w3.org/2000/svg" width="26.103" height="26.103" viewBox="0 0 26.103 26.103"><defs><style>.a{fill:#200e32;}</style></defs><path class="a" d="M13.06,0a13.051,13.051,0,0,1-.015,26.1,12.952,12.952,0,0,1-2.8-.307.978.978,0,1,1,.424-1.909A11.1,11.1,0,1,0,13.059,1.955h0A11.1,11.1,0,0,0,3.21,18.182h0l.251.49a2.562,2.562,0,0,1,.176,1.935,22.341,22.341,0,0,0-.692,2.13c.733-.221,1.629-.546,2.276-.782h0l.266-.1A.977.977,0,0,1,6.15,23.7h0l-.262.1A31,31,0,0,1,2.7,24.825a1.009,1.009,0,0,1-.232.024A1.575,1.575,0,0,1,1.3,24.4a1.711,1.711,0,0,1-.439-1.308A1,1,0,0,1,.89,22.9a22.859,22.859,0,0,1,.9-2.931.613.613,0,0,0-.064-.4h0l-.252-.489A13.054,13.054,0,0,1,13.045,0h0Zm-.015,11.5a1.552,1.552,0,1,1-1.552,1.552A1.553,1.553,0,0,1,13.046,11.5Zm5.747,0a1.552,1.552,0,1,1-1.552,1.552A1.553,1.553,0,0,1,18.792,11.5ZM7.3,11.5A1.552,1.552,0,1,1,5.747,13.05,1.553,1.553,0,0,1,7.3,11.5Z"/></svg>