<svg xmlns="http://www.w3.org/2000/svg" width="29.809" height="24.251" viewBox="0 0 29.809 24.251"><path d="M34.624,33.392h-6.3V31.317H29.8a3.5,3.5,0,0,0,3.5-3.5,3.462,3.462,0,0,0-1.453-2.826,1.888,1.888,0,0,0,.123-.673A2.024,2.024,0,0,0,30.53,22.41v-.574a2.554,2.554,0,0,0-5.109,0v.574a2.091,2.091,0,0,0-.222.091V15.12l-5.972-4.859-.308.131h0L8.033,15.016V33.392h-2.1a.56.56,0,0,0,0,1.12H34.624a.56.56,0,1,0,0-1.12Zm-8.593-9.971.511-.045V21.836a1.435,1.435,0,1,1,2.869,0v1.541l.511.045a.952.952,0,0,1,.924.9.842.842,0,0,1-.193.523l-.434.544.624.308A2.372,2.372,0,0,1,29.8,30.2H28.326v-1.94l1.13-.484a.56.56,0,1,0-.441-1.029l-.873.374-.535-2.031a.56.56,0,1,0-1.083.285l.681,2.588V30.2H25.737a2.372,2.372,0,0,1-.784-4.613l.663-.232-.374-.594a.817.817,0,0,1-.134-.438A.951.951,0,0,1,26.031,23.422Zm-7.455-1.436L9.153,24.175V22.142L18.576,19.2ZM9.153,25.324l9.423-2.189v2.373l-9.423,1.71Zm9.423-7.293L9.153,20.97V18.844l9.423-3.184ZM9.153,28.356l9.423-1.71v2.377L9.153,30.128Zm9.423-16.6v2.727c-.006,0-.011,0-.016,0L9.153,17.662v-1.9Zm-9.423,19.5,9.423-1.105v3.242H9.153ZM19.7,33.392V12.085l4.385,3.568v8.084a1.939,1.939,0,0,0-.093.583,1.829,1.829,0,0,0,.056.45,3.487,3.487,0,0,0,.037,6.129v2.494H19.7Zm5.5-2.122a3.461,3.461,0,0,0,.537.046h1.469v2.076H25.2Z" transform="translate(-5.375 -10.261)"/></svg>