<svg xmlns="http://www.w3.org/2000/svg" width="25.775" height="24.254" viewBox="0 0 25.775 24.254"><defs><style>.a{fill:#fff;}</style></defs><g transform="translate(-4 -4)"><path class="a" d="M8.548,7.032A1.516,1.516,0,1,0,8.548,4H5.516A1.516,1.516,0,0,0,4,5.516V26.739a1.516,1.516,0,0,0,1.516,1.516H8.548a1.516,1.516,0,0,0,0-3.032H7.032V7.032ZM29.5,15.248,25.223,9.184a1.516,1.516,0,1,0-2.471,1.758l2.607,3.668H13.1a1.516,1.516,0,0,0,0,3.032H25.223l-2.729,3.638A1.516,1.516,0,0,0,24.919,23.1l4.548-6.064a1.516,1.516,0,0,0,.03-1.789Z"/></g></svg>