<svg xmlns="http://www.w3.org/2000/svg" width="25.303" height="25.302" viewBox="0 0 25.303 25.302"><defs><style>.a{fill:#231f20;}</style></defs><path class="a" d="M18.483,27.022a9.145,9.145,0,0,0,5.9-2.138l.852.852-.283.283a.791.791,0,0,0,0,1.118l6.529,6.528a.788.788,0,0,0,1.118,0l1.746-1.746a.791.791,0,0,0,0-1.118l-6.529-6.528a.79.79,0,0,0-1.118,0l-.345.345-.848-.848a9.2,9.2,0,1,0-7.019,3.253ZM32.664,31.36l-.628.627-5.411-5.41.628-.627ZM13.087,12.413a7.631,7.631,0,1,1-2.235,5.4,7.581,7.581,0,0,1,2.235-5.4Z" transform="translate(-9.271 -8.595)"/></svg>