<svg xmlns="http://www.w3.org/2000/svg" width="31.013" height="30.99" viewBox="0 0 31.013 30.99"><path d="M27.456,21.922a5.534,5.534,0,0,0-4.328,2.136L12.858,18.923a4.952,4.952,0,0,0,0-2.856l10.271-5.135a5.5,5.5,0,1,0-1.206-3.4,5.534,5.534,0,0,0,.21,1.428L11.861,14.1a5.534,5.534,0,1,0,0,6.8l10.271,5.135a5.534,5.534,0,1,0,5.324-4.106Zm0-17.709a3.32,3.32,0,1,1-3.32,3.32,3.32,3.32,0,0,1,3.32-3.32ZM7.534,20.815a3.32,3.32,0,1,1,3.32-3.32A3.32,3.32,0,0,1,7.534,20.815Zm19.922,9.961a3.32,3.32,0,1,1,3.32-3.32,3.32,3.32,0,0,1-3.32,3.32Z" transform="translate(-2 -2)"/></svg>