<svg xmlns="http://www.w3.org/2000/svg" width="17.484" height="17.484" viewBox="0 0 17.484 17.484"><path d="M18.235,13.864v1.873a2.5,2.5,0,0,1-1.577,2.317l.263.526a.625.625,0,1,1-1.117.559l-.452-.9H6.132l-.452.9a.625.625,0,0,1-1.117-.559l.263-.526a2.5,2.5,0,0,1-1.577-2.317V13.864Zm1.249-1.873a.624.624,0,0,1-.624.624H2.624a.624.624,0,0,1,0-1.249h.624V3.873A1.876,1.876,0,0,1,5.122,2a2.165,2.165,0,0,1,1.639.756A1.656,1.656,0,0,1,8.869,3.5L6.621,5.747A1.656,1.656,0,0,1,5.878,3.64a.957.957,0,0,0-.755-.391.626.626,0,0,0-.626.624v7.493H18.859A.624.624,0,0,1,19.484,11.991Z" transform="translate(-2 -2)"/></svg>